# xmcd
#
# Track frame offsets:
#  150
#  21549
#  40483
#  68969
#  93010
#  111108
#  130035
#  151279
#  170320
#  189735
#  214671
#  229261
#  256336
#  274564
#  290904
#  306848
#
# Disc length: 4436 seconds
#
# Revision: 1
# Processed by: cddbd v1.5.1PL2 Copyright (c) Steve Scherf et al.
# Submitted via: Collectorz.com Music Collector 6.9
#
DISCID=e7115210
DTITLE=Mike McClellan - Time And Time Again - Cd2
DYEAR=2001
DGENRE=Country - Easy Listening - Vocal
TTITLE0=Mr Bojangles
TTITLE1=The One I Love
TTITLE2=Good Companions
TTITLE3=Lovers And Strangers
TTITLE4=Rock'n Roll Man
TTITLE5=I Got Over You A Long, Long Time Ago
TTITLE6=Burnin' Your Bridges
TTITLE7=The Heartland
TTITLE8=Murmur Of The Heart
TTITLE9=River Of The Night
TTITLE10=Face To Face
TTITLE11=Storm Out On The Ocean
TTITLE12=New York City Blues
TTITLE13=Oh Babe
TTITLE14=Sing Me Home Tonight
TTITLE15=Sacred Ground
EXTD=
EXTT0=
EXTT1=
EXTT2=
EXTT3=
EXTT4=
EXTT5=
EXTT6=
EXTT7=
EXTT8=
EXTT9=
EXTT10=
EXTT11=
EXTT12=
EXTT13=
EXTT14=
EXTT15=
PLAYORDER=
